<svg width="31" height="10" viewBox="0 0 31 10" fill="none" xmlns="http://www.w3.org/2000/svg">
<path d="M0.858845 10V0.129999H7.14485V1.306H2.21685V4.47H6.44485V5.646H2.21685V8.824H7.14485V10H0.858845ZM10.3969 0.129999H11.7549L14.7229 9.622H15.1009L18.0689 0.129999H19.4269L16.3189 10H13.5049L10.3969 0.129999ZM22.6819 10V0.129999H26.0559C27.3439 0.129999 28.3239 0.330666 28.9959 0.731999C29.6772 1.13333 30.0179 1.852 30.0179 2.888C30.0179 4.21333 29.3599 4.98333 28.0439 5.198V5.562H29.2759C29.8546 5.562 30.1439 5.842 30.1439 6.402V10H28.7859V6.136H24.0399V10H22.6819ZM24.0399 4.96H26.0559C26.4292 4.96 26.7279 4.95067 26.9519 4.932C27.1852 4.91333 27.4186 4.87133 27.6519 4.806C27.8946 4.74067 28.0812 4.64267 28.2119 4.512C28.3426 4.38133 28.4499 4.204 28.5339 3.98C28.6179 3.74667 28.6599 3.462 28.6599 3.126C28.6599 2.79 28.6179 2.51 28.5339 2.286C28.4499 2.062 28.3426 1.88467 28.2119 1.754C28.0812 1.62333 27.8946 1.52533 27.6519 1.46C27.4186 1.39467 27.1852 1.35267 26.9519 1.334C26.7279 1.31533 26.4292 1.306 26.0559 1.306H24.0399V4.96Z" fill="white"/>
</svg>
